<svg xmlns="http://www.w3.org/2000/svg" xmlns:xlink="http://www.w3.org/1999/xlink" width="500" zoomAndPan="magnify" viewBox="0 0 375 74.999997" height="100" preserveAspectRatio="xMidYMid meet" version="1.0"><defs><g><g id="id1"/></g></defs><rect x="-37.5" width="450" fill="rgb(100%, 100%, 100%)" y="-7.5" height="89.999996" fill-opacity="1"/><rect x="-37.5" width="450" fill="rgb(100%, 100%, 100%)" y="-7.5" height="89.999996" fill-opacity="1"/><rect x="-37.5" width="450" fill="rgb(94.898987%, 89.7995%, 83.529663%)" y="-7.5" height="89.999996" fill-opacity="1"/><g fill="rgb(36.859131%, 33.729553%, 46.669006%)" fill-opacity="1"><g transform="translate(130.832597, 50.351687)"><g><path d="M 21.410156 0.472656 C 35.386719 0.472656 44.117188 -8.492188 44.117188 -21.527344 C 44.117188 -34.503906 34.976562 -41.699219 20.996094 -41.699219 C 17.164062 -41.699219 9.199219 -41.285156 6.015625 -41.285156 C 4.953125 -41.34375 3.242188 -41.402344 2.300781 -41.402344 C 2.183594 -41.402344 1.472656 -39.574219 3.421875 -39.042969 C 5.191406 -38.632812 6.488281 -38.21875 6.488281 -33.5 L 6.488281 -7.785156 C 6.488281 -3.066406 5.191406 -2.652344 3.421875 -2.242188 C 1.472656 -1.710938 2.183594 0.175781 2.300781 0.175781 L 6.488281 0 C 10.5 0 15.984375 0.472656 21.410156 0.472656 Z M 20.171875 -2.0625 C 17.339844 -2.0625 16.691406 -2.476562 16.691406 -4.421875 L 16.632812 -37.097656 C 16.632812 -38.515625 16.984375 -39.222656 18.992188 -39.222656 C 28.664062 -39.222656 33.324219 -30.492188 33.265625 -19.285156 C 33.207031 -9.023438 28.898438 -2.0625 20.171875 -2.0625 Z M 20.171875 -2.0625 "/></g></g></g><g fill="rgb(36.859131%, 33.729553%, 46.669006%)" fill-opacity="1"><g transform="translate(174.468873, 50.351687)"><g><path d="M 54.144531 -2.242188 C 52.375 -2.652344 51.019531 -3.066406 50.488281 -7.726562 L 47.597656 -33.558594 C 47.066406 -38.21875 48.421875 -38.632812 50.308594 -39.042969 C 52.375 -39.574219 51.609375 -41.464844 51.488281 -41.464844 C 50.488281 -41.402344 48.660156 -41.285156 47.539062 -41.285156 L 39.515625 -41.285156 C 38.394531 -41.285156 38.101562 -40.992188 37.6875 -39.988281 L 28.546875 -16.925781 C 28.429688 -16.632812 28.308594 -16.515625 28.074219 -16.515625 C 27.898438 -16.515625 27.78125 -16.632812 27.660156 -16.925781 L 18.933594 -39.988281 C 18.578125 -41.050781 18.046875 -41.285156 16.925781 -41.285156 L 8.492188 -41.285156 C 7.429688 -41.285156 5.722656 -41.402344 4.777344 -41.464844 C 4.660156 -41.464844 3.953125 -39.574219 5.898438 -39.042969 C 7.253906 -38.75 8.492188 -38.394531 9.851562 -36.273438 L 6.605469 -7.726562 C 6.074219 -3.066406 4.660156 -2.652344 2.949219 -2.242188 C 0.945312 -1.710938 1.710938 0.175781 1.828125 0.175781 C 2.714844 0.117188 4.484375 0 5.484375 0 L 9.378906 0 C 10.851562 0 13.269531 0.117188 14.566406 0.175781 C 14.746094 0.175781 15.746094 -1.710938 12.976562 -2.242188 C 10.441406 -2.652344 8.609375 -3.066406 9.140625 -7.726562 L 11.617188 -30.550781 C 11.679688 -30.90625 11.796875 -30.964844 11.914062 -30.964844 C 12.089844 -30.964844 12.207031 -30.90625 12.328125 -30.609375 L 22.589844 -2.832031 C 22.882812 -2.003906 23.414062 -1.59375 24.0625 -1.59375 C 24.773438 -1.59375 25.183594 -2.003906 25.539062 -2.890625 L 36.980469 -30.789062 C 37.097656 -31.082031 37.214844 -31.199219 37.394531 -31.199219 C 37.570312 -31.199219 37.6875 -31.140625 37.746094 -30.847656 L 40.222656 -7.726562 C 40.753906 -3.066406 38.925781 -2.652344 36.449219 -2.242188 C 33.617188 -1.710938 34.621094 0.175781 34.796875 0.175781 C 36.097656 0.117188 38.574219 0 40.046875 0 L 51.546875 0 C 52.609375 0 54.320312 0.117188 55.207031 0.175781 C 55.382812 0.175781 56.089844 -1.710938 54.144531 -2.242188 Z M 11.027344 -34.148438 L 11.148438 -33.972656 Z M 11.027344 -34.148438 "/></g></g></g><g fill="rgb(36.859131%, 33.729553%, 46.669006%)" fill-opacity="1"><g transform="translate(229.188058, 50.351687)"><g/></g></g><g fill="rgb(88.238525%, 35.688782%, 31.369019%)" fill-opacity="1"><g transform="translate(133.999802, 68.857457)"><g><path d="M 1.921875 -11.796875 L 6.71875 -11.796875 C 7.96875 -11.796875 9.066406 -11.546875 10.015625 -11.046875 C 10.972656 -10.546875 11.710938 -9.847656 12.234375 -8.953125 C 12.765625 -8.054688 13.03125 -7.035156 13.03125 -5.890625 C 13.03125 -4.742188 12.765625 -3.722656 12.234375 -2.828125 C 11.710938 -1.941406 10.972656 -1.25 10.015625 -0.75 C 9.066406 -0.25 7.96875 0 6.71875 0 L 1.921875 0 Z M 6.65625 -1.078125 C 7.6875 -1.078125 8.585938 -1.28125 9.359375 -1.6875 C 10.140625 -2.101562 10.742188 -2.671875 11.171875 -3.390625 C 11.597656 -4.117188 11.8125 -4.953125 11.8125 -5.890625 C 11.8125 -6.835938 11.597656 -7.671875 11.171875 -8.390625 C 10.742188 -9.117188 10.140625 -9.6875 9.359375 -10.09375 C 8.585938 -10.507812 7.6875 -10.71875 6.65625 -10.71875 L 3.171875 -10.71875 L 3.171875 -1.078125 Z M 6.65625 -1.078125 "/></g></g></g><g fill="rgb(88.238525%, 35.688782%, 31.369019%)" fill-opacity="1"><g transform="translate(147.242322, 68.857457)"><g><path d="M 10.265625 -1.078125 L 10.265625 0 L 1.921875 0 L 1.921875 -11.796875 L 10 -11.796875 L 10 -10.71875 L 3.171875 -10.71875 L 3.171875 -6.515625 L 9.265625 -6.515625 L 9.265625 -5.453125 L 3.171875 -5.453125 L 3.171875 -1.078125 Z M 10.265625 -1.078125 "/></g></g></g><g fill="rgb(88.238525%, 35.688782%, 31.369019%)" fill-opacity="1"><g transform="translate(157.839668, 68.857457)"><g><path d="M 5.171875 0.09375 C 4.296875 0.09375 3.457031 -0.0390625 2.65625 -0.3125 C 1.851562 -0.59375 1.234375 -0.96875 0.796875 -1.4375 L 1.28125 -2.390625 C 1.707031 -1.960938 2.273438 -1.613281 2.984375 -1.34375 C 3.691406 -1.082031 4.421875 -0.953125 5.171875 -0.953125 C 6.222656 -0.953125 7.015625 -1.144531 7.546875 -1.53125 C 8.078125 -1.925781 8.34375 -2.429688 8.34375 -3.046875 C 8.34375 -3.515625 8.195312 -3.890625 7.90625 -4.171875 C 7.625 -4.453125 7.273438 -4.664062 6.859375 -4.8125 C 6.441406 -4.96875 5.863281 -5.140625 5.125 -5.328125 C 4.238281 -5.546875 3.53125 -5.757812 3 -5.96875 C 2.46875 -6.175781 2.015625 -6.492188 1.640625 -6.921875 C 1.265625 -7.347656 1.078125 -7.925781 1.078125 -8.65625 C 1.078125 -9.25 1.234375 -9.789062 1.546875 -10.28125 C 1.859375 -10.769531 2.335938 -11.160156 2.984375 -11.453125 C 3.640625 -11.742188 4.453125 -11.890625 5.421875 -11.890625 C 6.097656 -11.890625 6.757812 -11.796875 7.40625 -11.609375 C 8.050781 -11.421875 8.609375 -11.164062 9.078125 -10.84375 L 8.65625 -9.859375 C 8.164062 -10.179688 7.640625 -10.421875 7.078125 -10.578125 C 6.515625 -10.742188 5.960938 -10.828125 5.421875 -10.828125 C 4.390625 -10.828125 3.613281 -10.628906 3.09375 -10.234375 C 2.570312 -9.835938 2.3125 -9.320312 2.3125 -8.6875 C 2.3125 -8.21875 2.453125 -7.835938 2.734375 -7.546875 C 3.023438 -7.265625 3.382812 -7.046875 3.8125 -6.890625 C 4.25 -6.742188 4.832031 -6.582031 5.5625 -6.40625 C 6.425781 -6.1875 7.125 -5.972656 7.65625 -5.765625 C 8.1875 -5.554688 8.632812 -5.238281 9 -4.8125 C 9.375 -4.394531 9.5625 -3.828125 9.5625 -3.109375 C 9.5625 -2.515625 9.398438 -1.972656 9.078125 -1.484375 C 8.765625 -1.003906 8.273438 -0.617188 7.609375 -0.328125 C 6.953125 -0.046875 6.140625 0.09375 5.171875 0.09375 Z M 5.171875 0.09375 "/></g></g></g><g fill="rgb(88.238525%, 35.688782%, 31.369019%)" fill-opacity="1"><g transform="translate(167.527211, 68.857457)"><g><path d="M 10.265625 -1.078125 L 10.265625 0 L 1.921875 0 L 1.921875 -11.796875 L 10 -11.796875 L 10 -10.71875 L 3.171875 -10.71875 L 3.171875 -6.515625 L 9.265625 -6.515625 L 9.265625 -5.453125 L 3.171875 -5.453125 L 3.171875 -1.078125 Z M 10.265625 -1.078125 "/></g></g></g><g fill="rgb(88.238525%, 35.688782%, 31.369019%)" fill-opacity="1"><g transform="translate(178.124559, 68.857457)"><g><path d="M 11.78125 -11.796875 L 11.78125 0 L 10.75 0 L 3.171875 -9.5625 L 3.171875 0 L 1.921875 0 L 1.921875 -11.796875 L 2.953125 -11.796875 L 10.546875 -2.21875 L 10.546875 -11.796875 Z M 11.78125 -11.796875 "/></g></g></g><g fill="rgb(88.238525%, 35.688782%, 31.369019%)" fill-opacity="1"><g transform="translate(191.148053, 68.857457)"><g><path d="M 11.78125 -11.796875 L 11.78125 0 L 10.546875 0 L 10.546875 -5.4375 L 3.171875 -5.4375 L 3.171875 0 L 1.921875 0 L 1.921875 -11.796875 L 3.171875 -11.796875 L 3.171875 -6.53125 L 10.546875 -6.53125 L 10.546875 -11.796875 Z M 11.78125 -11.796875 "/></g></g></g><g fill="rgb(88.238525%, 35.688782%, 31.369019%)" fill-opacity="1"><g transform="translate(204.171547, 68.857457)"><g><path d="M 7.078125 0.09375 C 5.910156 0.09375 4.847656 -0.164062 3.890625 -0.6875 C 2.941406 -1.207031 2.203125 -1.921875 1.671875 -2.828125 C 1.140625 -3.734375 0.875 -4.753906 0.875 -5.890625 C 0.875 -7.023438 1.140625 -8.046875 1.671875 -8.953125 C 2.203125 -9.867188 2.941406 -10.585938 3.890625 -11.109375 C 4.847656 -11.628906 5.910156 -11.890625 7.078125 -11.890625 C 8.242188 -11.890625 9.296875 -11.628906 10.234375 -11.109375 C 11.171875 -10.597656 11.90625 -9.882812 12.4375 -8.96875 C 12.976562 -8.050781 13.25 -7.023438 13.25 -5.890625 C 13.25 -4.753906 12.976562 -3.726562 12.4375 -2.8125 C 11.90625 -1.90625 11.171875 -1.191406 10.234375 -0.671875 C 9.296875 -0.160156 8.242188 0.09375 7.078125 0.09375 Z M 7.078125 -1.015625 C 8.003906 -1.015625 8.84375 -1.222656 9.59375 -1.640625 C 10.351562 -2.066406 10.945312 -2.648438 11.375 -3.390625 C 11.800781 -4.140625 12.015625 -4.972656 12.015625 -5.890625 C 12.015625 -6.816406 11.800781 -7.648438 11.375 -8.390625 C 10.945312 -9.140625 10.351562 -9.722656 9.59375 -10.140625 C 8.84375 -10.566406 8.003906 -10.78125 7.078125 -10.78125 C 6.140625 -10.78125 5.289062 -10.566406 4.53125 -10.140625 C 3.78125 -9.722656 3.1875 -9.140625 2.75 -8.390625 C 2.320312 -7.648438 2.109375 -6.816406 2.109375 -5.890625 C 2.109375 -4.972656 2.320312 -4.140625 2.75 -3.390625 C 3.1875 -2.648438 3.78125 -2.066406 4.53125 -1.640625 C 5.289062 -1.222656 6.140625 -1.015625 7.078125 -1.015625 Z M 7.078125 -1.015625 "/></g></g></g><g fill="rgb(88.238525%, 35.688782%, 31.369019%)" fill-opacity="1"><g transform="translate(217.633096, 68.857457)"><g><path d="M 5.171875 0.09375 C 4.296875 0.09375 3.457031 -0.0390625 2.65625 -0.3125 C 1.851562 -0.59375 1.234375 -0.96875 0.796875 -1.4375 L 1.28125 -2.390625 C 1.707031 -1.960938 2.273438 -1.613281 2.984375 -1.34375 C 3.691406 -1.082031 4.421875 -0.953125 5.171875 -0.953125 C 6.222656 -0.953125 7.015625 -1.144531 7.546875 -1.53125 C 8.078125 -1.925781 8.34375 -2.429688 8.34375 -3.046875 C 8.34375 -3.515625 8.195312 -3.890625 7.90625 -4.171875 C 7.625 -4.453125 7.273438 -4.664062 6.859375 -4.8125 C 6.441406 -4.96875 5.863281 -5.140625 5.125 -5.328125 C 4.238281 -5.546875 3.53125 -5.757812 3 -5.96875 C 2.46875 -6.175781 2.015625 -6.492188 1.640625 -6.921875 C 1.265625 -7.347656 1.078125 -7.925781 1.078125 -8.65625 C 1.078125 -9.25 1.234375 -9.789062 1.546875 -10.28125 C 1.859375 -10.769531 2.335938 -11.160156 2.984375 -11.453125 C 3.640625 -11.742188 4.453125 -11.890625 5.421875 -11.890625 C 6.097656 -11.890625 6.757812 -11.796875 7.40625 -11.609375 C 8.050781 -11.421875 8.609375 -11.164062 9.078125 -10.84375 L 8.65625 -9.859375 C 8.164062 -10.179688 7.640625 -10.421875 7.078125 -10.578125 C 6.515625 -10.742188 5.960938 -10.828125 5.421875 -10.828125 C 4.390625 -10.828125 3.613281 -10.628906 3.09375 -10.234375 C 2.570312 -9.835938 2.3125 -9.320312 2.3125 -8.6875 C 2.3125 -8.21875 2.453125 -7.835938 2.734375 -7.546875 C 3.023438 -7.265625 3.382812 -7.046875 3.8125 -6.890625 C 4.25 -6.742188 4.832031 -6.582031 5.5625 -6.40625 C 6.425781 -6.1875 7.125 -5.972656 7.65625 -5.765625 C 8.1875 -5.554688 8.632812 -5.238281 9 -4.8125 C 9.375 -4.394531 9.5625 -3.828125 9.5625 -3.109375 C 9.5625 -2.515625 9.398438 -1.972656 9.078125 -1.484375 C 8.765625 -1.003906 8.273438 -0.617188 7.609375 -0.328125 C 6.953125 -0.046875 6.140625 0.09375 5.171875 0.09375 Z M 5.171875 0.09375 "/></g></g></g></svg>