<svg xmlns="http://www.w3.org/2000/svg" xmlns:xlink="http://www.w3.org/1999/xlink" width="500" zoomAndPan="magnify" viewBox="0 0 375 374.999991" height="500" preserveAspectRatio="xMidYMid meet" version="1.0"><defs><g><g id="id1"/><g id="id2"/></g></defs><rect x="-37.5" width="450" fill="rgb(100%, 100%, 100%)" y="-37.499999" height="449.999989" fill-opacity="1"/><rect x="-37.5" width="450" fill="rgb(100%, 100%, 100%)" y="-37.499999" height="449.999989" fill-opacity="1"/><rect x="-37.5" width="450" fill="rgb(94.898987%, 89.7995%, 83.529663%)" y="-37.499999" height="449.999989" fill-opacity="1"/><g fill="rgb(36.859131%, 33.729553%, 46.669006%)" fill-opacity="1"><g transform="translate(133.696008, 193.587542)"><g><path d="M 20.328125 0.449219 C 33.597656 0.449219 41.882812 -8.0625 41.882812 -20.4375 C 41.882812 -32.757812 33.203125 -39.589844 19.933594 -39.589844 C 16.292969 -39.589844 8.734375 -39.195312 5.710938 -39.195312 C 4.703125 -39.253906 3.078125 -39.308594 2.183594 -39.308594 C 2.070312 -39.308594 1.398438 -37.574219 3.246094 -37.070312 C 4.925781 -36.675781 6.160156 -36.285156 6.160156 -31.804688 L 6.160156 -7.390625 C 6.160156 -2.910156 4.925781 -2.519531 3.246094 -2.128906 C 1.398438 -1.625 2.070312 0.167969 2.183594 0.167969 L 6.160156 0 C 9.96875 0 15.175781 0.449219 20.328125 0.449219 Z M 19.148438 -1.960938 C 16.460938 -1.960938 15.847656 -2.351562 15.847656 -4.199219 L 15.789062 -35.222656 C 15.789062 -36.566406 16.125 -37.238281 18.03125 -37.238281 C 27.214844 -37.238281 31.636719 -28.949219 31.582031 -18.308594 C 31.523438 -8.566406 27.4375 -1.960938 19.148438 -1.960938 Z M 19.148438 -1.960938 "/></g></g></g><g fill="rgb(36.859131%, 33.729553%, 46.669006%)" fill-opacity="1"><g transform="translate(175.129909, 193.587542)"><g><path d="M 51.402344 -2.128906 C 49.722656 -2.519531 48.4375 -2.910156 47.933594 -7.335938 L 45.1875 -31.859375 C 44.683594 -36.285156 45.972656 -36.675781 47.765625 -37.070312 C 49.722656 -37.574219 48.996094 -39.363281 48.882812 -39.363281 C 47.933594 -39.308594 46.195312 -39.195312 45.132812 -39.195312 L 37.515625 -39.195312 C 36.453125 -39.195312 36.171875 -38.917969 35.78125 -37.964844 L 27.101562 -16.070312 C 26.988281 -15.789062 26.878906 -15.679688 26.652344 -15.679688 C 26.484375 -15.679688 26.375 -15.789062 26.261719 -16.070312 L 17.972656 -37.964844 C 17.636719 -38.972656 17.132812 -39.195312 16.070312 -39.195312 L 8.0625 -39.195312 C 7.054688 -39.195312 5.429688 -39.308594 4.535156 -39.363281 C 4.421875 -39.363281 3.75 -37.574219 5.597656 -37.070312 C 6.886719 -36.789062 8.0625 -36.453125 9.351562 -34.4375 L 6.269531 -7.335938 C 5.765625 -2.910156 4.421875 -2.519531 2.800781 -2.128906 C 0.894531 -1.625 1.625 0.167969 1.734375 0.167969 C 2.574219 0.113281 4.253906 0 5.207031 0 L 8.902344 0 C 10.304688 0 12.597656 0.113281 13.832031 0.167969 C 14 0.167969 14.949219 -1.625 12.320312 -2.128906 C 9.910156 -2.519531 8.175781 -2.910156 8.679688 -7.335938 L 11.03125 -29.003906 C 11.085938 -29.339844 11.199219 -29.398438 11.3125 -29.398438 C 11.480469 -29.398438 11.589844 -29.339844 11.703125 -29.0625 L 21.445312 -2.6875 C 21.726562 -1.902344 22.230469 -1.511719 22.847656 -1.511719 C 23.519531 -1.511719 23.910156 -1.902344 24.246094 -2.742188 L 35.109375 -29.230469 C 35.222656 -29.507812 35.332031 -29.621094 35.5 -29.621094 C 35.667969 -29.621094 35.78125 -29.566406 35.835938 -29.285156 L 38.1875 -7.335938 C 38.691406 -2.910156 36.957031 -2.519531 34.605469 -2.128906 C 31.917969 -1.625 32.867188 0.167969 33.035156 0.167969 C 34.269531 0.113281 36.621094 0 38.019531 0 L 48.941406 0 C 49.949219 0 51.570312 0.113281 52.410156 0.167969 C 52.578125 0.167969 53.25 -1.625 51.402344 -2.128906 Z M 10.472656 -32.421875 L 10.582031 -32.253906 Z M 10.472656 -32.421875 "/></g></g></g><g fill="rgb(36.859131%, 33.729553%, 46.669006%)" fill-opacity="1"><g transform="translate(227.082725, 193.587542)"><g/></g></g><g fill="rgb(88.238525%, 35.688782%, 31.369019%)" fill-opacity="1"><g transform="translate(136.7569, 211.312529)"><g><path d="M 1.828125 -11.203125 L 6.390625 -11.203125 C 7.566406 -11.203125 8.609375 -10.960938 9.515625 -10.484375 C 10.421875 -10.015625 11.125 -9.351562 11.625 -8.5 C 12.132812 -7.65625 12.390625 -6.6875 12.390625 -5.59375 C 12.390625 -4.507812 12.132812 -3.539062 11.625 -2.6875 C 11.125 -1.84375 10.421875 -1.179688 9.515625 -0.703125 C 8.609375 -0.234375 7.566406 0 6.390625 0 L 1.828125 0 Z M 6.3125 -1.03125 C 7.300781 -1.03125 8.160156 -1.222656 8.890625 -1.609375 C 9.628906 -1.992188 10.203125 -2.53125 10.609375 -3.21875 C 11.015625 -3.90625 11.21875 -4.695312 11.21875 -5.59375 C 11.21875 -6.488281 11.015625 -7.28125 10.609375 -7.96875 C 10.203125 -8.664062 9.628906 -9.207031 8.890625 -9.59375 C 8.160156 -9.976562 7.300781 -10.171875 6.3125 -10.171875 L 3.015625 -10.171875 L 3.015625 -1.03125 Z M 6.3125 -1.03125 "/></g></g></g><g fill="rgb(88.238525%, 35.688782%, 31.369019%)" fill-opacity="1"><g transform="translate(149.32968, 211.312529)"><g><path d="M 9.75 -1.03125 L 9.75 0 L 1.828125 0 L 1.828125 -11.203125 L 9.5 -11.203125 L 9.5 -10.171875 L 3.015625 -10.171875 L 3.015625 -6.1875 L 8.796875 -6.1875 L 8.796875 -5.1875 L 3.015625 -5.1875 L 3.015625 -1.03125 Z M 9.75 -1.03125 "/></g></g></g><g fill="rgb(88.238525%, 35.688782%, 31.369019%)" fill-opacity="1"><g transform="translate(159.391066, 211.312529)"><g><path d="M 4.90625 0.09375 C 4.070312 0.09375 3.273438 -0.0351562 2.515625 -0.296875 C 1.753906 -0.566406 1.164062 -0.921875 0.75 -1.359375 L 1.21875 -2.265625 C 1.625 -1.859375 2.160156 -1.53125 2.828125 -1.28125 C 3.503906 -1.03125 4.195312 -0.90625 4.90625 -0.90625 C 5.914062 -0.90625 6.671875 -1.085938 7.171875 -1.453125 C 7.671875 -1.828125 7.921875 -2.304688 7.921875 -2.890625 C 7.921875 -3.335938 7.785156 -3.695312 7.515625 -3.96875 C 7.242188 -4.238281 6.910156 -4.441406 6.515625 -4.578125 C 6.117188 -4.722656 5.566406 -4.882812 4.859375 -5.0625 C 4.015625 -5.269531 3.34375 -5.472656 2.84375 -5.671875 C 2.34375 -5.867188 1.914062 -6.171875 1.5625 -6.578125 C 1.207031 -6.984375 1.03125 -7.53125 1.03125 -8.21875 C 1.03125 -8.789062 1.175781 -9.304688 1.46875 -9.765625 C 1.769531 -10.234375 2.226562 -10.601562 2.84375 -10.875 C 3.46875 -11.15625 4.238281 -11.296875 5.15625 -11.296875 C 5.789062 -11.296875 6.414062 -11.207031 7.03125 -11.03125 C 7.644531 -10.851562 8.175781 -10.609375 8.625 -10.296875 L 8.21875 -9.359375 C 7.75 -9.671875 7.25 -9.898438 6.71875 -10.046875 C 6.1875 -10.203125 5.664062 -10.28125 5.15625 -10.28125 C 4.175781 -10.28125 3.4375 -10.09375 2.9375 -9.71875 C 2.4375 -9.34375 2.1875 -8.851562 2.1875 -8.25 C 2.1875 -7.800781 2.320312 -7.441406 2.59375 -7.171875 C 2.875 -6.898438 3.21875 -6.691406 3.625 -6.546875 C 4.03125 -6.410156 4.582031 -6.253906 5.28125 -6.078125 C 6.101562 -5.878906 6.765625 -5.679688 7.265625 -5.484375 C 7.773438 -5.285156 8.207031 -4.984375 8.5625 -4.578125 C 8.914062 -4.179688 9.09375 -3.640625 9.09375 -2.953125 C 9.09375 -2.390625 8.9375 -1.875 8.625 -1.40625 C 8.320312 -0.945312 7.851562 -0.582031 7.21875 -0.3125 C 6.59375 -0.0390625 5.820312 0.09375 4.90625 0.09375 Z M 4.90625 0.09375 "/></g></g></g><g fill="rgb(88.238525%, 35.688782%, 31.369019%)" fill-opacity="1"><g transform="translate(168.588662, 211.312529)"><g><path d="M 9.75 -1.03125 L 9.75 0 L 1.828125 0 L 1.828125 -11.203125 L 9.5 -11.203125 L 9.5 -10.171875 L 3.015625 -10.171875 L 3.015625 -6.1875 L 8.796875 -6.1875 L 8.796875 -5.1875 L 3.015625 -5.1875 L 3.015625 -1.03125 Z M 9.75 -1.03125 "/></g></g></g><g fill="rgb(88.238525%, 35.688782%, 31.369019%)" fill-opacity="1"><g transform="translate(178.650049, 211.312529)"><g><path d="M 11.1875 -11.203125 L 11.1875 0 L 10.203125 0 L 3.015625 -9.09375 L 3.015625 0 L 1.828125 0 L 1.828125 -11.203125 L 2.796875 -11.203125 L 10.015625 -2.109375 L 10.015625 -11.203125 Z M 11.1875 -11.203125 "/></g></g></g><g fill="rgb(88.238525%, 35.688782%, 31.369019%)" fill-opacity="1"><g transform="translate(191.01488, 211.312529)"><g><path d="M 11.1875 -11.203125 L 11.1875 0 L 10.015625 0 L 10.015625 -5.171875 L 3.015625 -5.171875 L 3.015625 0 L 1.828125 0 L 1.828125 -11.203125 L 3.015625 -11.203125 L 3.015625 -6.203125 L 10.015625 -6.203125 L 10.015625 -11.203125 Z M 11.1875 -11.203125 "/></g></g></g><g fill="rgb(88.238525%, 35.688782%, 31.369019%)" fill-opacity="1"><g transform="translate(203.379711, 211.312529)"><g><path d="M 6.71875 0.09375 C 5.613281 0.09375 4.609375 -0.148438 3.703125 -0.640625 C 2.804688 -1.140625 2.101562 -1.820312 1.59375 -2.6875 C 1.082031 -3.550781 0.828125 -4.519531 0.828125 -5.59375 C 0.828125 -6.675781 1.082031 -7.648438 1.59375 -8.515625 C 2.101562 -9.378906 2.804688 -10.054688 3.703125 -10.546875 C 4.609375 -11.046875 5.613281 -11.296875 6.71875 -11.296875 C 7.832031 -11.296875 8.832031 -11.050781 9.71875 -10.5625 C 10.613281 -10.070312 11.316406 -9.390625 11.828125 -8.515625 C 12.335938 -7.648438 12.59375 -6.675781 12.59375 -5.59375 C 12.59375 -4.519531 12.335938 -3.546875 11.828125 -2.671875 C 11.316406 -1.804688 10.613281 -1.128906 9.71875 -0.640625 C 8.832031 -0.148438 7.832031 0.09375 6.71875 0.09375 Z M 6.71875 -0.953125 C 7.601562 -0.953125 8.398438 -1.148438 9.109375 -1.546875 C 9.828125 -1.953125 10.390625 -2.507812 10.796875 -3.21875 C 11.203125 -3.925781 11.40625 -4.71875 11.40625 -5.59375 C 11.40625 -6.46875 11.203125 -7.257812 10.796875 -7.96875 C 10.390625 -8.6875 9.828125 -9.242188 9.109375 -9.640625 C 8.398438 -10.035156 7.601562 -10.234375 6.71875 -10.234375 C 5.832031 -10.234375 5.03125 -10.035156 4.3125 -9.640625 C 3.59375 -9.242188 3.023438 -8.6875 2.609375 -7.96875 C 2.203125 -7.257812 2 -6.46875 2 -5.59375 C 2 -4.71875 2.203125 -3.925781 2.609375 -3.21875 C 3.023438 -2.507812 3.59375 -1.953125 4.3125 -1.546875 C 5.03125 -1.148438 5.832031 -0.953125 6.71875 -0.953125 Z M 6.71875 -0.953125 "/></g></g></g><g fill="rgb(88.238525%, 35.688782%, 31.369019%)" fill-opacity="1"><g transform="translate(216.160443, 211.312529)"><g><path d="M 4.90625 0.09375 C 4.070312 0.09375 3.273438 -0.0351562 2.515625 -0.296875 C 1.753906 -0.566406 1.164062 -0.921875 0.75 -1.359375 L 1.21875 -2.265625 C 1.625 -1.859375 2.160156 -1.53125 2.828125 -1.28125 C 3.503906 -1.03125 4.195312 -0.90625 4.90625 -0.90625 C 5.914062 -0.90625 6.671875 -1.085938 7.171875 -1.453125 C 7.671875 -1.828125 7.921875 -2.304688 7.921875 -2.890625 C 7.921875 -3.335938 7.785156 -3.695312 7.515625 -3.96875 C 7.242188 -4.238281 6.910156 -4.441406 6.515625 -4.578125 C 6.117188 -4.722656 5.566406 -4.882812 4.859375 -5.0625 C 4.015625 -5.269531 3.34375 -5.472656 2.84375 -5.671875 C 2.34375 -5.867188 1.914062 -6.171875 1.5625 -6.578125 C 1.207031 -6.984375 1.03125 -7.53125 1.03125 -8.21875 C 1.03125 -8.789062 1.175781 -9.304688 1.46875 -9.765625 C 1.769531 -10.234375 2.226562 -10.601562 2.84375 -10.875 C 3.46875 -11.15625 4.238281 -11.296875 5.15625 -11.296875 C 5.789062 -11.296875 6.414062 -11.207031 7.03125 -11.03125 C 7.644531 -10.851562 8.175781 -10.609375 8.625 -10.296875 L 8.21875 -9.359375 C 7.75 -9.671875 7.25 -9.898438 6.71875 -10.046875 C 6.1875 -10.203125 5.664062 -10.28125 5.15625 -10.28125 C 4.175781 -10.28125 3.4375 -10.09375 2.9375 -9.71875 C 2.4375 -9.34375 2.1875 -8.851562 2.1875 -8.25 C 2.1875 -7.800781 2.320312 -7.441406 2.59375 -7.171875 C 2.875 -6.898438 3.21875 -6.691406 3.625 -6.546875 C 4.03125 -6.410156 4.582031 -6.253906 5.28125 -6.078125 C 6.101562 -5.878906 6.765625 -5.679688 7.265625 -5.484375 C 7.773438 -5.285156 8.207031 -4.984375 8.5625 -4.578125 C 8.914062 -4.179688 9.09375 -3.640625 9.09375 -2.953125 C 9.09375 -2.390625 8.9375 -1.875 8.625 -1.40625 C 8.320312 -0.945312 7.851562 -0.582031 7.21875 -0.3125 C 6.59375 -0.0390625 5.820312 0.09375 4.90625 0.09375 Z M 4.90625 0.09375 "/></g></g></g><g fill="rgb(88.238525%, 35.688782%, 31.369019%)" fill-opacity="1"><g transform="translate(181.053772, 227.062528)"><g/></g></g></svg>