<svg xmlns="http://www.w3.org/2000/svg" xmlns:xlink="http://www.w3.org/1999/xlink" width="500" zoomAndPan="magnify" viewBox="0 0 375 374.999991" height="500" preserveAspectRatio="xMidYMid meet" version="1.0"><defs><g><g id="id1"/></g></defs><rect x="-37.5" width="450" fill="rgb(100%, 100%, 100%)" y="-37.499999" height="449.999989" fill-opacity="1"/><rect x="-37.5" width="450" fill="rgb(100%, 100%, 100%)" y="-37.499999" height="449.999989" fill-opacity="1"/><g fill="rgb(36.859131%, 33.729553%, 46.669006%)" fill-opacity="1"><g transform="translate(2.046547, 225.42025)"><g><path d="M 78.644531 1.734375 C 129.988281 1.734375 162.050781 -31.195312 162.050781 -79.078125 C 162.050781 -126.738281 128.472656 -153.167969 77.125 -153.167969 C 63.042969 -153.167969 33.796875 -151.652344 22.097656 -151.652344 C 18.199219 -151.871094 11.914062 -152.085938 8.449219 -152.085938 C 8.015625 -152.085938 5.417969 -145.371094 12.566406 -143.421875 C 19.066406 -141.902344 23.832031 -140.386719 23.832031 -123.054688 L 23.832031 -28.597656 C 23.832031 -11.265625 19.066406 -9.75 12.566406 -8.234375 C 5.417969 -6.28125 8.015625 0.648438 8.449219 0.648438 L 23.832031 0 C 38.5625 0 58.710938 1.734375 78.644531 1.734375 Z M 74.09375 -7.582031 C 63.695312 -7.582031 61.3125 -9.097656 61.3125 -16.25 L 61.09375 -136.269531 C 61.09375 -141.46875 62.394531 -144.070312 69.761719 -144.070312 C 105.289062 -144.070312 122.40625 -112.007812 122.1875 -70.84375 C 121.972656 -33.148438 106.15625 -7.582031 74.09375 -7.582031 Z M 74.09375 -7.582031 "/></g></g></g><g fill="rgb(36.859131%, 33.729553%, 46.669006%)" fill-opacity="1"><g transform="translate(162.356103, 225.42025)"><g><path d="M 198.882812 -8.234375 C 192.382812 -9.75 187.398438 -11.265625 185.449219 -28.378906 L 174.835938 -123.273438 C 172.882812 -140.386719 177.867188 -141.902344 184.800781 -143.421875 C 192.382812 -145.371094 189.566406 -152.304688 189.132812 -152.304688 C 185.449219 -152.085938 178.734375 -151.652344 174.617188 -151.652344 L 145.152344 -151.652344 C 141.039062 -151.652344 139.953125 -150.570312 138.4375 -146.886719 L 104.855469 -62.175781 C 104.425781 -61.09375 103.992188 -60.660156 103.125 -60.660156 C 102.472656 -60.660156 102.039062 -61.09375 101.609375 -62.175781 L 69.542969 -146.886719 C 68.242188 -150.785156 66.292969 -151.652344 62.175781 -151.652344 L 31.195312 -151.652344 C 27.296875 -151.652344 21.015625 -152.085938 17.546875 -152.304688 C 17.113281 -152.304688 14.515625 -145.371094 21.664062 -143.421875 C 26.648438 -142.335938 31.195312 -141.039062 36.179688 -133.238281 L 24.265625 -28.378906 C 22.316406 -11.265625 17.113281 -9.75 10.832031 -8.234375 C 3.464844 -6.28125 6.28125 0.648438 6.714844 0.648438 C 9.964844 0.433594 16.464844 0 20.148438 0 L 34.445312 0 C 39.863281 0 48.746094 0.433594 53.511719 0.648438 C 54.160156 0.648438 57.84375 -6.28125 47.664062 -8.234375 C 38.347656 -9.75 31.628906 -11.265625 33.582031 -28.378906 L 42.679688 -112.222656 C 42.894531 -113.523438 43.328125 -113.738281 43.761719 -113.738281 C 44.414062 -113.738281 44.847656 -113.523438 45.277344 -112.441406 L 82.976562 -10.398438 C 84.058594 -7.367188 86.007812 -5.847656 88.390625 -5.847656 C 90.992188 -5.847656 92.507812 -7.367188 93.808594 -10.617188 L 135.835938 -113.089844 C 136.269531 -114.171875 136.703125 -114.605469 137.355469 -114.605469 C 138.003906 -114.605469 138.4375 -114.390625 138.652344 -113.304688 L 147.753906 -28.378906 C 149.703125 -11.265625 142.988281 -9.75 133.886719 -8.234375 C 123.488281 -6.28125 127.171875 0.648438 127.820312 0.648438 C 132.589844 0.433594 141.6875 0 147.101562 0 L 189.347656 0 C 193.25 0 199.53125 0.433594 202.78125 0.648438 C 203.429688 0.648438 206.03125 -6.28125 198.882812 -8.234375 Z M 40.511719 -125.4375 L 40.945312 -124.789062 Z M 40.511719 -125.4375 "/></g></g></g><g fill="rgb(36.859131%, 33.729553%, 46.669006%)" fill-opacity="1"><g transform="translate(363.363779, 225.42025)"><g/></g></g><g fill="rgb(88.238525%, 35.688782%, 31.369019%)" fill-opacity="1"><g transform="translate(7.12579, 284.009781)"><g><path d="M 7.34375 -45.09375 L 25.703125 -45.09375 C 30.472656 -45.09375 34.679688 -44.132812 38.328125 -42.21875 C 41.984375 -40.3125 44.816406 -37.648438 46.828125 -34.234375 C 48.847656 -30.828125 49.859375 -26.929688 49.859375 -22.546875 C 49.859375 -18.171875 48.847656 -14.273438 46.828125 -10.859375 C 44.816406 -7.441406 41.984375 -4.773438 38.328125 -2.859375 C 34.679688 -0.953125 30.472656 0 25.703125 0 L 7.34375 0 Z M 25.453125 -4.125 C 29.398438 -4.125 32.851562 -4.90625 35.8125 -6.46875 C 38.78125 -8.039062 41.078125 -10.210938 42.703125 -12.984375 C 44.335938 -15.753906 45.15625 -18.941406 45.15625 -22.546875 C 45.15625 -26.148438 44.335938 -29.335938 42.703125 -32.109375 C 41.078125 -34.878906 38.78125 -37.046875 35.8125 -38.609375 C 32.851562 -40.179688 29.398438 -40.96875 25.453125 -40.96875 L 12.109375 -40.96875 L 12.109375 -4.125 Z M 25.453125 -4.125 "/></g></g></g><g fill="rgb(88.238525%, 35.688782%, 31.369019%)" fill-opacity="1"><g transform="translate(57.737823, 284.009781)"><g><path d="M 39.234375 -4.125 L 39.234375 0 L 7.34375 0 L 7.34375 -45.09375 L 38.265625 -45.09375 L 38.265625 -40.96875 L 12.109375 -40.96875 L 12.109375 -24.9375 L 35.4375 -24.9375 L 35.4375 -20.875 L 12.109375 -20.875 L 12.109375 -4.125 Z M 39.234375 -4.125 "/></g></g></g><g fill="rgb(88.238525%, 35.688782%, 31.369019%)" fill-opacity="1"><g transform="translate(98.240085, 284.009781)"><g><path d="M 19.78125 0.390625 C 16.425781 0.390625 13.210938 -0.144531 10.140625 -1.21875 C 7.078125 -2.289062 4.707031 -3.707031 3.03125 -5.46875 L 4.890625 -9.140625 C 6.523438 -7.515625 8.695312 -6.195312 11.40625 -5.1875 C 14.113281 -4.175781 16.90625 -3.671875 19.78125 -3.671875 C 23.8125 -3.671875 26.835938 -4.410156 28.859375 -5.890625 C 30.878906 -7.367188 31.890625 -9.289062 31.890625 -11.65625 C 31.890625 -13.457031 31.34375 -14.894531 30.25 -15.96875 C 29.15625 -17.050781 27.8125 -17.878906 26.21875 -18.453125 C 24.632812 -19.035156 22.421875 -19.671875 19.578125 -20.359375 C 16.191406 -21.210938 13.488281 -22.035156 11.46875 -22.828125 C 9.445312 -23.628906 7.71875 -24.84375 6.28125 -26.46875 C 4.84375 -28.101562 4.125 -30.316406 4.125 -33.109375 C 4.125 -35.390625 4.722656 -37.460938 5.921875 -39.328125 C 7.128906 -41.191406 8.976562 -42.679688 11.46875 -43.796875 C 13.957031 -44.921875 17.050781 -45.484375 20.75 -45.484375 C 23.320312 -45.484375 25.84375 -45.128906 28.3125 -44.421875 C 30.78125 -43.710938 32.914062 -42.734375 34.71875 -41.484375 L 33.109375 -37.6875 C 31.222656 -38.9375 29.207031 -39.867188 27.0625 -40.484375 C 24.914062 -41.109375 22.8125 -41.421875 20.75 -41.421875 C 16.789062 -41.421875 13.8125 -40.65625 11.8125 -39.125 C 9.820312 -37.601562 8.828125 -35.640625 8.828125 -33.234375 C 8.828125 -31.429688 9.375 -29.984375 10.46875 -28.890625 C 11.5625 -27.796875 12.9375 -26.957031 14.59375 -26.375 C 16.25 -25.800781 18.472656 -25.171875 21.265625 -24.484375 C 24.566406 -23.660156 27.238281 -22.851562 29.28125 -22.0625 C 31.320312 -21.269531 33.050781 -20.066406 34.46875 -18.453125 C 35.882812 -16.847656 36.59375 -14.671875 36.59375 -11.921875 C 36.59375 -9.640625 35.976562 -7.566406 34.75 -5.703125 C 33.53125 -3.835938 31.648438 -2.351562 29.109375 -1.25 C 26.578125 -0.15625 23.46875 0.390625 19.78125 0.390625 Z M 19.78125 0.390625 "/></g></g></g><g fill="rgb(88.238525%, 35.688782%, 31.369019%)" fill-opacity="1"><g transform="translate(135.265087, 284.009781)"><g><path d="M 39.234375 -4.125 L 39.234375 0 L 7.34375 0 L 7.34375 -45.09375 L 38.265625 -45.09375 L 38.265625 -40.96875 L 12.109375 -40.96875 L 12.109375 -24.9375 L 35.4375 -24.9375 L 35.4375 -20.875 L 12.109375 -20.875 L 12.109375 -4.125 Z M 39.234375 -4.125 "/></g></g></g><g fill="rgb(88.238525%, 35.688782%, 31.369019%)" fill-opacity="1"><g transform="translate(175.767352, 284.009781)"><g><path d="M 45.03125 -45.09375 L 45.03125 0 L 41.09375 0 L 12.109375 -36.59375 L 12.109375 0 L 7.34375 0 L 7.34375 -45.09375 L 11.28125 -45.09375 L 40.328125 -8.5 L 40.328125 -45.09375 Z M 45.03125 -45.09375 "/></g></g></g><g fill="rgb(88.238525%, 35.688782%, 31.369019%)" fill-opacity="1"><g transform="translate(225.542288, 284.009781)"><g><path d="M 45.03125 -45.09375 L 45.03125 0 L 40.328125 0 L 40.328125 -20.8125 L 12.109375 -20.8125 L 12.109375 0 L 7.34375 0 L 7.34375 -45.09375 L 12.109375 -45.09375 L 12.109375 -25 L 40.328125 -25 L 40.328125 -45.09375 Z M 45.03125 -45.09375 "/></g></g></g><g fill="rgb(88.238525%, 35.688782%, 31.369019%)" fill-opacity="1"><g transform="translate(275.31721, 284.009781)"><g><path d="M 27.0625 0.390625 C 22.59375 0.390625 18.539062 -0.609375 14.90625 -2.609375 C 11.28125 -4.609375 8.445312 -7.347656 6.40625 -10.828125 C 4.363281 -14.304688 3.34375 -18.210938 3.34375 -22.546875 C 3.34375 -26.878906 4.363281 -30.785156 6.40625 -34.265625 C 8.445312 -37.742188 11.28125 -40.484375 14.90625 -42.484375 C 18.539062 -44.484375 22.59375 -45.484375 27.0625 -45.484375 C 31.519531 -45.484375 35.539062 -44.492188 39.125 -42.515625 C 42.71875 -40.546875 45.546875 -37.804688 47.609375 -34.296875 C 49.671875 -30.796875 50.703125 -26.878906 50.703125 -22.546875 C 50.703125 -18.210938 49.671875 -14.296875 47.609375 -10.796875 C 45.546875 -7.296875 42.71875 -4.554688 39.125 -2.578125 C 35.539062 -0.597656 31.519531 0.390625 27.0625 0.390625 Z M 27.0625 -3.859375 C 30.625 -3.859375 33.84375 -4.664062 36.71875 -6.28125 C 39.59375 -7.894531 41.847656 -10.128906 43.484375 -12.984375 C 45.117188 -15.835938 45.9375 -19.023438 45.9375 -22.546875 C 45.9375 -26.066406 45.117188 -29.253906 43.484375 -32.109375 C 41.847656 -34.960938 39.59375 -37.195312 36.71875 -38.8125 C 33.84375 -40.425781 30.625 -41.234375 27.0625 -41.234375 C 23.488281 -41.234375 20.253906 -40.425781 17.359375 -38.8125 C 14.460938 -37.195312 12.1875 -34.960938 10.53125 -32.109375 C 8.875 -29.253906 8.046875 -26.066406 8.046875 -22.546875 C 8.046875 -19.023438 8.875 -15.835938 10.53125 -12.984375 C 12.1875 -10.128906 14.460938 -7.894531 17.359375 -6.28125 C 20.253906 -4.664062 23.488281 -3.859375 27.0625 -3.859375 Z M 27.0625 -3.859375 "/></g></g></g><g fill="rgb(88.238525%, 35.688782%, 31.369019%)" fill-opacity="1"><g transform="translate(326.766378, 284.009781)"><g><path d="M 19.78125 0.390625 C 16.425781 0.390625 13.210938 -0.144531 10.140625 -1.21875 C 7.078125 -2.289062 4.707031 -3.707031 3.03125 -5.46875 L 4.890625 -9.140625 C 6.523438 -7.515625 8.695312 -6.195312 11.40625 -5.1875 C 14.113281 -4.175781 16.90625 -3.671875 19.78125 -3.671875 C 23.8125 -3.671875 26.835938 -4.410156 28.859375 -5.890625 C 30.878906 -7.367188 31.890625 -9.289062 31.890625 -11.65625 C 31.890625 -13.457031 31.34375 -14.894531 30.25 -15.96875 C 29.15625 -17.050781 27.8125 -17.878906 26.21875 -18.453125 C 24.632812 -19.035156 22.421875 -19.671875 19.578125 -20.359375 C 16.191406 -21.210938 13.488281 -22.035156 11.46875 -22.828125 C 9.445312 -23.628906 7.71875 -24.84375 6.28125 -26.46875 C 4.84375 -28.101562 4.125 -30.316406 4.125 -33.109375 C 4.125 -35.390625 4.722656 -37.460938 5.921875 -39.328125 C 7.128906 -41.191406 8.976562 -42.679688 11.46875 -43.796875 C 13.957031 -44.921875 17.050781 -45.484375 20.75 -45.484375 C 23.320312 -45.484375 25.84375 -45.128906 28.3125 -44.421875 C 30.78125 -43.710938 32.914062 -42.734375 34.71875 -41.484375 L 33.109375 -37.6875 C 31.222656 -38.9375 29.207031 -39.867188 27.0625 -40.484375 C 24.914062 -41.109375 22.8125 -41.421875 20.75 -41.421875 C 16.789062 -41.421875 13.8125 -40.65625 11.8125 -39.125 C 9.820312 -37.601562 8.828125 -35.640625 8.828125 -33.234375 C 8.828125 -31.429688 9.375 -29.984375 10.46875 -28.890625 C 11.5625 -27.796875 12.9375 -26.957031 14.59375 -26.375 C 16.25 -25.800781 18.472656 -25.171875 21.265625 -24.484375 C 24.566406 -23.660156 27.238281 -22.851562 29.28125 -22.0625 C 31.320312 -21.269531 33.050781 -20.066406 34.46875 -18.453125 C 35.882812 -16.847656 36.59375 -14.671875 36.59375 -11.921875 C 36.59375 -9.640625 35.976562 -7.566406 34.75 -5.703125 C 33.53125 -3.835938 31.648438 -2.351562 29.109375 -1.25 C 26.578125 -0.15625 23.46875 0.390625 19.78125 0.390625 Z M 19.78125 0.390625 "/></g></g></g></svg>